<svg width="900" height="600" viewBox="0 0 900 600" fill="none" xmlns="http://www.w3.org/2000/svg">
<g clip-path="url(#clip0)">
<rect width="900" height="600" fill="white"/>
<path opacity="0.97" d="M216.73 69.6248L188 74.0771L190.019 51L216.73 69.6248Z" fill="#484D7A"/>
<path opacity="0.84" d="M244.885 346.941L216.088 353.231L223.637 330L244.885 346.941Z" fill="#00AC8C"/>
<path opacity="0.92" d="M334.202 239.934L365.177 228.966L353.168 250.305L334.202 239.934Z" fill="#FDCF41"/>
<path opacity="0.78" d="M648.565 189.065L634 165.639L662.925 174.665L648.565 189.065Z" fill="#5770BE"/>
<path opacity="0.7" d="M56.6474 91.453L34.7417 107.293L41.5885 78.3985L56.6474 91.453Z" fill="#5770BE"/>
<path opacity="0.76" d="M254.301 62.0426L223 51.1479L237.383 29L254.301 62.0426Z" fill="#484D7A"/>
<path opacity="0.75" d="M342.416 66.7236L352.093 75.6207L337.634 76.3784L342.416 66.7236Z" fill="#FF6F4C"/>
<path opacity="0.75" d="M515.009 68.6122L526.587 86.1701L503.847 81.75L515.009 68.6122Z" fill="#FF6F4C"/>
<path opacity="0.71" d="M650.87 6.07581L661.251 29.5349L635.781 17.4785L650.87 6.07581Z" fill="#5770BE"/>
<path opacity="0.81" d="M647.506 81.8184L634.267 64.128L650.473 57.2489L647.506 81.8184Z" fill="#484D7A"/>
<path opacity="0.86" d="M896.218 10.7078L872.228 16.832L877.884 -2.89116L896.218 10.7078Z" fill="#00AC8C"/>
<path opacity="0.79" d="M57.4625 108.709L70.4217 92.989L70.8537 108.164L57.4625 108.709Z" fill="#FDCF41"/>
<path opacity="0.7" d="M144.604 138.359L114.886 123.782L150.062 114.574L144.604 138.359Z" fill="#5770BE"/>
<path opacity="0.91" d="M332.665 105.942L357.809 107.523L337.187 126.091L332.665 105.942Z" fill="#FF6F4C"/>
<path opacity="0.93" d="M497.415 162.424L485.249 139.85L506.487 140.592L497.415 162.424Z" fill="#00AC8C"/>
<path opacity="0.82" d="M559.515 131.455L554.377 153.483L542.839 131.478L559.515 131.455Z" fill="#5770BE"/>
<path opacity="0.77" d="M713.862 166.196L704.049 182.79L698.553 162.279L713.862 166.196Z" fill="#FF6F4C"/>
<path opacity="0.85" d="M820.036 165.38L830.121 186.695L810.655 184.992L820.036 165.38Z" fill="#00AC8C"/>
<path opacity="0.82" d="M30.0937 196.06L39.8033 186.878L39.5464 201.595L30.0937 196.06Z" fill="#FF6F4C"/>
<path opacity="0.77" d="M193.451 179.057L162.893 179.323L179.914 164.195L193.451 179.057Z" fill="#FDCF41"/>
<path opacity="0.96" d="M368.955 172.87L353.205 158.935L368.876 159.036L368.955 172.87Z" fill="#FDCF41"/>
<path opacity="0.79" d="M463.69 232.013L461.237 261.978L440.828 247.688L463.69 232.013Z" fill="#00AC8C"/>
<path opacity="0.79" d="M410.631 30.6065L389.258 9.46079L413.326 3.01877L410.631 30.6065Z" fill="#00AC8C"/>
<path opacity="0.78" d="M511.049 259.39L487.698 270.983L496.571 243.673L511.049 259.39Z" fill="#FF6F4C"/>
<path opacity="0.7" d="M679.498 247.722L701.133 223L716.148 244.443L679.498 247.722Z" fill="#484D7A"/>
<path opacity="0.97" d="M879.093 237.003L867.833 203.348L890.649 216.718L879.093 237.003Z" fill="#FDCF41"/>
<path opacity="0.86" d="M26.9257 325.964L49.244 334.756L32.4081 340.761L26.9257 325.964Z" fill="#FDCF41"/>
<path d="M101.637 270.322L115.473 247L126.368 266.655L101.637 270.322Z" fill="#00AC8C"/>
<path opacity="0.97" d="M258.066 295.979L247.849 277.847L269.991 283.78L258.066 295.979Z" fill="#FF6F4C"/>
<path opacity="0.7" d="M495.996 278.079L523.347 296.878L498.782 299.733L495.996 278.079Z" fill="#FDCF41"/>
<path opacity="0.88" d="M627.02 292.221L652.502 309.089L629.932 312.112L627.02 292.221Z" fill="#FDCF41"/>
<path opacity="0.95" d="M767.86 90.1216L797.721 93.6187L782.727 113.516L767.86 90.1216Z" fill="#00AC8C"/>
<path opacity="0.9" d="M803.252 275.534L785.939 290.515L789.582 265.631L803.252 275.534Z" fill="#5770BE"/>
<path opacity="0.92" d="M256.787 409.54L260.99 441.467L242.981 425.608L256.787 409.54Z" fill="#FDCF41"/>
<path opacity="0.77" d="M233.165 209.858L249.019 192L250.854 218.238L233.165 209.858Z" fill="#FF6F4C"/>
<path opacity="0.86" d="M170.995 457.65L143 458.295L154.25 438L170.995 457.65Z" fill="#00AC8C"/>
<path opacity="0.85" d="M499.237 437.148L477.559 463.737L461.108 441.906L499.237 437.148Z" fill="#484D7A"/>
<path opacity="0.82" d="M628.003 389.7L601.78 411.179L597.385 383.435L628.003 389.7Z" fill="#00AC8C"/>
<path opacity="0.74" d="M674.788 424.489L659.419 408.191L677.507 404.015L674.788 424.489Z" fill="#00AC8C"/>
<path opacity="0.78" d="M827.18 399.946L838.573 413.856L823.857 416.187L827.18 399.946Z" fill="#00AC8C"/>
<path opacity="0.79" d="M17.0806 439.555L28.6501 411.625L35.8467 432.972L17.0806 439.555Z" fill="#FDCF41"/>
<path opacity="0.71" d="M235.833 516.225L221.256 536.896L208.034 521.686L235.833 516.225Z" fill="#484D7A"/>
<path opacity="0.95" d="M363.103 370.258L368.993 394.98L345 380.563L363.103 370.258Z" fill="#FF6F4C"/>
<path opacity="0.83" d="M393.785 501.447L387.087 476.998L407.378 482.435L393.785 501.447Z" fill="#00AC8C"/>
<path opacity="0.82" d="M612.515 486.902L607.285 464.951L628.589 477.752L612.515 486.902Z" fill="#FF6F4C"/>
<path opacity="0.87" d="M758.67 411.732L747 388.638L767.089 384L758.67 411.732Z" fill="#484D7A"/>
<path opacity="0.81" d="M839.945 483.827L854.836 508.798L832.683 515.57L839.945 483.827Z" fill="#484D7A"/>
<path opacity="0.98" d="M81.6622 582.604L61.1668 580.595L78.5426 566.015L81.6622 582.604Z" fill="#FF6F4C"/>
<path opacity="0.76" d="M522.841 545.781L525.61 520L541.812 543.425L522.841 545.781Z" fill="#5770BE"/>
<path opacity="0.96" d="M305.241 518.953L303.267 489.78L325.847 512.622L305.241 518.953Z" fill="#5770BE"/>
<path opacity="0.75" d="M447.045 581.716L451.804 613.565L433.522 598.022L447.045 581.716Z" fill="#FDCF41"/>
<path opacity="0.93" d="M574.97 607.05L569.197 639.364L550.805 608.349L574.97 607.05Z" fill="#5770BE"/>
<path opacity="0.72" d="M770.339 559.259L760.52 574.04L756.456 554.922L770.339 559.259Z" fill="#FF6F4C"/>
<path opacity="0.71" d="M821.38 545.219L805.288 572.344L792.617 549.485L821.38 545.219Z" fill="#00AC8C"/>
</g>
<defs>
<clipPath id="clip0">
<rect width="900" height="600" fill="white"/>
</clipPath>
</defs>
</svg>
