<svg width="900" height="600" viewBox="0 0 900 600" fill="none" xmlns="http://www.w3.org/2000/svg">
<g clip-path="url(#clip0)">
<rect width="900" height="600" fill="white"/>
<path opacity="0.83" d="M101.484 148.447L93.0464 130L113.539 135.491L101.484 148.447Z" fill="#00AC8C"/>
<path opacity="0.83" d="M743.046 430.503L739.792 410.461L753 414L743.046 430.503Z" fill="#00AC8C"/>
<path opacity="0.78" d="M612.63 77.52L597 85.2796L602.939 66.9999L612.63 77.52Z" fill="#FF6F4C"/>
<path opacity="0.88" d="M748.035 303.962L770.414 318.775L750.593 321.431L748.035 303.962Z" fill="#FDCF41"/>
<path opacity="0.78" d="M529.749 515.793L520 500.113L539.361 506.155L529.749 515.793Z" fill="#5770BE"/>
<path opacity="0.78" d="M463.749 181.793L454 166.113L473.361 172.155L463.749 181.793Z" fill="#5770BE"/>
<path opacity="0.78" d="M532.671 26.4022L523.232 42.2708L519.691 22.3009L532.671 26.4022Z" fill="#5770BE"/>
<path opacity="0.74" d="M82.8986 85.2462L71.5595 86.0011L73.1318 77.0837L82.8986 85.2462Z" fill="#484D7A"/>
<path opacity="0.86" d="M203.671 35.6221L198.287 53.6831L188.224 35.5278L203.671 35.6221Z" fill="#FF6F4C"/>
<path opacity="0.88" d="M411.788 64.8736L390 48.7503L410.132 47.1197L411.788 64.8736Z" fill="#FDCF41"/>
<path opacity="0.85" d="M823.075 156.608L820.475 139L836.335 150.523L823.075 156.608Z" fill="#FF6F4C"/>
<path opacity="0.72" d="M761.175 22.3441L748.851 52.0967L741.184 29.3567L761.175 22.3441Z" fill="#FDCF41"/>
<path opacity="0.9" d="M29.5862 122.812L54.7391 117.236L43.3549 132.694L29.5862 122.812Z" fill="#FDCF41"/>
<path opacity="0.8" d="M205.428 167.396L221.868 171.343L210.706 177.186L205.428 167.396Z" fill="#FDCF41"/>
<path opacity="0.72" d="M314.08 123.124L299.44 135.548L296.677 119.878L314.08 123.124Z" fill="#00AC8C"/>
<path opacity="0.72" d="M665.403 8.12391L650.763 20.5483L648 4.8782L665.403 8.12391Z" fill="#00AC8C"/>
<path opacity="0.92" d="M551.518 121.464L549.563 141.766L540.709 129.413L551.518 121.464Z" fill="#FDCF41"/>
<path opacity="0.82" d="M725.688 128.765L718.107 147.408L711.03 126.464L725.688 128.765Z" fill="#5770BE"/>
<path opacity="0.84" d="M871.247 88.3847L885.229 71.1977L885.938 95.5252L871.247 88.3847Z" fill="#5770BE"/>
<path opacity="0.81" d="M130.145 240.096L109.387 232.896L131.816 223.984L130.145 240.096Z" fill="#5770BE"/>
<path opacity="0.95" d="M277.992 246.452L250.219 240.294L268.825 230.137L277.992 246.452Z" fill="#FDCF41"/>
<path opacity="0.95" d="M23.7727 391.019L-4.00003 384.861L14.6059 374.704L23.7727 391.019Z" fill="#FDCF41"/>
<path opacity="0.98" d="M374.722 248.632L367.705 261.501L362.985 246.062L374.722 248.632Z" fill="#FF6F4C"/>
<path opacity="0.8" d="M467.47 252.18L468.911 275.753L456.548 263.229L467.47 252.18Z" fill="#FDCF41"/>
<path opacity="0.98" d="M748.363 249.392L725.839 242.29L741.962 235.236L748.363 249.392Z" fill="#FDCF41"/>
<path opacity="0.82" d="M132.232 381.199L150.52 389.219L137.132 398.946L132.232 381.199Z" fill="#00AC8C"/>
<path d="M303.619 371.312L316.676 375.336L302.93 381.362L303.619 371.312Z" fill="#5770BE"/>
<path opacity="0.72" d="M425.809 371.688L438.333 372.696L427.889 381.775L425.809 371.688Z" fill="#FF6F4C"/>
<path opacity="0.7" d="M576.491 305.014L578.438 290.578L587.951 298.01L576.491 305.014Z" fill="#00AC8C"/>
<path opacity="0.98" d="M688.203 348.11L674.354 341.475L690.248 335.69L688.203 348.11Z" fill="#FF6F4C"/>
<path opacity="0.71" d="M839.606 359.449L846.979 341.319L853.861 361.686L839.606 359.449Z" fill="#5770BE"/>
<path opacity="0.95" d="M77.9324 440.796L66.3418 456.105L64.992 435.055L77.9324 440.796Z" fill="#5770BE"/>
<path opacity="0.86" d="M272.729 431.342L284.166 445.217L270.946 443.036L272.729 431.342Z" fill="#FDCF41"/>
<path opacity="0.89" d="M367.894 408.871L353.726 410.312L355.305 399.075L367.894 408.871Z" fill="#484D7A"/>
<path opacity="0.89" d="M627.168 245.796L613 247.237L614.579 236L627.168 245.796Z" fill="#484D7A"/>
<path opacity="0.85" d="M598.623 417.522L603.896 435.434L585.737 425.778L598.623 417.522Z" fill="#FF6F4C"/>
<path opacity="0.94" d="M615.543 476.498L609.874 463.058L624.234 470.165L615.543 476.498Z" fill="#5770BE"/>
<path opacity="0.8" d="M762.597 485.894L779.683 485.178L767.08 499.175L762.597 485.894Z" fill="#FF6F4C"/>
<path opacity="0.89" d="M127.196 520.451L143.398 508.099L145.456 524.857L127.196 520.451Z" fill="#00AC8C"/>
<path opacity="0.96" d="M252.741 558.59L238.867 564.309L245.059 548.984L252.741 558.59Z" fill="#FF6F4C"/>
<path opacity="0.73" d="M417.553 572.869L430.165 565.915L424.668 580.749L417.553 572.869Z" fill="#5770BE"/>
<path opacity="0.97" d="M463.185 514.363L472.963 527.19L459.697 528.819L463.185 514.363Z" fill="#00AC8C"/>
<path opacity="0.78" d="M645.419 540.012L657.386 537.714L649.084 548.214L645.419 540.012Z" fill="#5770BE"/>
<path opacity="0.78" d="M296.419 26.9173L308.386 24.6192L300.084 35.1195L296.419 26.9173Z" fill="#5770BE"/>
<path opacity="0.92" d="M750.488 566.207L735.148 565.511L747.518 553.976L750.488 566.207Z" fill="#FF6F4C"/>
</g>
<defs>
<clipPath id="clip0">
<rect width="900" height="600" fill="white"/>
</clipPath>
</defs>
</svg>
